<svg xmlns="http://www.w3.org/2000/svg" xmlns:xlink="http://www.w3.org/1999/xlink" width="536" zoomAndPan="magnify" viewBox="0 0 402 392.999991" height="524" preserveAspectRatio="xMidYMid meet" version="1.0"><defs><clipPath id="f5f8acac55"><path d="M 43 223 L 159 223 L 159 346 L 43 346 Z M 43 223 " clip-rule="nonzero"/></clipPath><clipPath id="9beb6b2703"><path d="M 147.273438 95.777344 L 286.988281 281.613281 L 140.117188 392.035156 L 0.402344 206.199219 Z M 147.273438 95.777344 " clip-rule="nonzero"/></clipPath><clipPath id="48e9a0adc8"><path d="M 147.273438 95.777344 L 286.988281 281.613281 L 140.117188 392.035156 L 0.402344 206.199219 Z M 147.273438 95.777344 " clip-rule="nonzero"/></clipPath><clipPath id="3f908f8cef"><path d="M 113.910156 185.601562 L 196.007812 294.800781 L 113.332031 356.957031 L 31.234375 247.757812 Z M 113.910156 185.601562 " clip-rule="nonzero"/></clipPath><clipPath id="1b85bfaa34"><path d="M 113.910156 185.601562 L 196.007812 294.800781 L 113.34375 356.945312 L 31.246094 247.75 Z M 113.910156 185.601562 " clip-rule="nonzero"/></clipPath><clipPath id="fc10466d73"><path d="M 75 140 L 117 140 L 117 202 L 75 202 Z M 75 140 " clip-rule="nonzero"/></clipPath><clipPath id="58a9ab95b3"><path d="M 147.273438 95.777344 L 286.988281 281.613281 L 140.117188 392.035156 L 0.402344 206.199219 Z M 147.273438 95.777344 " clip-rule="nonzero"/></clipPath><clipPath id="f137ba810e"><path d="M 147.273438 95.777344 L 286.988281 281.613281 L 140.117188 392.035156 L 0.402344 206.199219 Z M 147.273438 95.777344 " clip-rule="nonzero"/></clipPath><clipPath id="0f35b35340"><path d="M 136 151 L 191 151 L 191 213 L 136 213 Z M 136 151 " clip-rule="nonzero"/></clipPath><clipPath id="d78d58b9d2"><path d="M 147.273438 95.777344 L 286.988281 281.613281 L 140.117188 392.035156 L 0.402344 206.199219 Z M 147.273438 95.777344 " clip-rule="nonzero"/></clipPath><clipPath id="767b9cb71f"><path d="M 147.273438 95.777344 L 286.988281 281.613281 L 140.117188 392.035156 L 0.402344 206.199219 Z M 147.273438 95.777344 " clip-rule="nonzero"/></clipPath><clipPath id="46eef27c5a"><path d="M 176 213 L 242 213 L 242 260 L 176 260 Z M 176 213 " clip-rule="nonzero"/></clipPath><clipPath id="16066ff1d8"><path d="M 147.273438 95.777344 L 286.988281 281.613281 L 140.117188 392.035156 L 0.402344 206.199219 Z M 147.273438 95.777344 " clip-rule="nonzero"/></clipPath><clipPath id="d73984729e"><path d="M 147.273438 95.777344 L 286.988281 281.613281 L 140.117188 392.035156 L 0.402344 206.199219 Z M 147.273438 95.777344 " clip-rule="nonzero"/></clipPath><clipPath id="c8a6b5539b"><path d="M 168 287 L 234 287 L 234 330 L 168 330 Z M 168 287 " clip-rule="nonzero"/></clipPath><clipPath id="e13907957a"><path d="M 147.273438 95.777344 L 286.988281 281.613281 L 140.117188 392.035156 L 0.402344 206.199219 Z M 147.273438 95.777344 " clip-rule="nonzero"/></clipPath><clipPath id="a2bfad248d"><path d="M 147.273438 95.777344 L 286.988281 281.613281 L 140.117188 392.035156 L 0.402344 206.199219 Z M 147.273438 95.777344 " clip-rule="nonzero"/></clipPath><clipPath id="ec216cc765"><path d="M 288 219 L 348 219 L 348 275 L 288 275 Z M 288 219 " clip-rule="nonzero"/></clipPath><clipPath id="ef32bd4205"><path d="M 305.554688 159.085938 L 401.667969 214.609375 L 357.773438 290.59375 L 261.660156 235.070312 Z M 305.554688 159.085938 " clip-rule="nonzero"/></clipPath><clipPath id="e5f95476ab"><path d="M 305.554688 159.085938 L 401.667969 214.609375 L 357.773438 290.59375 L 261.660156 235.070312 Z M 305.554688 159.085938 " clip-rule="nonzero"/></clipPath><clipPath id="05b044d850"><path d="M 307.683594 204.683594 L 364.042969 237.242188 L 339.394531 279.914062 L 283.035156 247.355469 Z M 307.683594 204.683594 " clip-rule="nonzero"/></clipPath><clipPath id="c224bc78cb"><path d="M 307.683594 204.683594 L 364.042969 237.242188 L 339.398438 279.90625 L 283.039062 247.347656 Z M 307.683594 204.683594 " clip-rule="nonzero"/></clipPath><clipPath id="ccd9b1f9a2"><path d="M 287 187 L 307 187 L 307 216 L 287 216 Z M 287 187 " clip-rule="nonzero"/></clipPath><clipPath id="73135aba83"><path d="M 305.554688 159.085938 L 401.667969 214.609375 L 357.773438 290.59375 L 261.660156 235.070312 Z M 305.554688 159.085938 " clip-rule="nonzero"/></clipPath><clipPath id="6d198fe1f1"><path d="M 305.554688 159.085938 L 401.667969 214.609375 L 357.773438 290.59375 L 261.660156 235.070312 Z M 305.554688 159.085938 " clip-rule="nonzero"/></clipPath><clipPath id="c64aaada8f"><path d="M 317 177 L 340 177 L 340 211 L 317 211 Z M 317 177 " clip-rule="nonzero"/></clipPath><clipPath id="a425f32fc7"><path d="M 305.554688 159.085938 L 401.667969 214.609375 L 357.773438 290.59375 L 261.660156 235.070312 Z M 305.554688 159.085938 " clip-rule="nonzero"/></clipPath><clipPath id="50d66763d2"><path d="M 305.554688 159.085938 L 401.667969 214.609375 L 357.773438 290.59375 L 261.660156 235.070312 Z M 305.554688 159.085938 " clip-rule="nonzero"/></clipPath><clipPath id="d190ae3d97"><path d="M 345 196 L 373 196 L 373 223 L 345 223 Z M 345 196 " clip-rule="nonzero"/></clipPath><clipPath id="2e14b64a31"><path d="M 305.554688 159.085938 L 401.667969 214.609375 L 357.773438 290.59375 L 261.660156 235.070312 Z M 305.554688 159.085938 " clip-rule="nonzero"/></clipPath><clipPath id="9626d9bdd4"><path d="M 305.554688 159.085938 L 401.667969 214.609375 L 357.773438 290.59375 L 261.660156 235.070312 Z M 305.554688 159.085938 " clip-rule="nonzero"/></clipPath><clipPath id="8e8f28a115"><path d="M 353 231 L 384 231 L 384 254 L 353 254 Z M 353 231 " clip-rule="nonzero"/></clipPath><clipPath id="fdadc9696b"><path d="M 305.554688 159.085938 L 401.667969 214.609375 L 357.773438 290.59375 L 261.660156 235.070312 Z M 305.554688 159.085938 " clip-rule="nonzero"/></clipPath><clipPath id="ab44d7d4fc"><path d="M 305.554688 159.085938 L 401.667969 214.609375 L 357.773438 290.59375 L 261.660156 235.070312 Z M 305.554688 159.085938 " clip-rule="nonzero"/></clipPath><clipPath id="f17033b419"><path d="M 103 55 L 156 55 L 156 107 L 103 107 Z M 103 55 " clip-rule="nonzero"/></clipPath><clipPath id="1d64ae1db8"><path d="M 123.980469 0.0820312 L 207.539062 55.925781 L 163.363281 122.023438 L 79.804688 66.179688 Z M 123.980469 0.0820312 " clip-rule="nonzero"/></clipPath><clipPath id="7ce979b932"><path d="M 123.980469 0.0820312 L 207.539062 55.925781 L 163.363281 122.023438 L 79.804688 66.179688 Z M 123.980469 0.0820312 " clip-rule="nonzero"/></clipPath><clipPath id="642049fed0"><path d="M 123.210938 41.371094 L 172.167969 74.09375 L 147.394531 111.160156 L 98.4375 78.4375 Z M 123.210938 41.371094 " clip-rule="nonzero"/></clipPath><clipPath id="8b1dbc81de"><path d="M 123.210938 41.371094 L 172.167969 74.09375 L 147.398438 111.152344 L 98.441406 78.433594 Z M 123.210938 41.371094 " clip-rule="nonzero"/></clipPath><clipPath id="5820b2e3a6"><path d="M 104 24 L 123 24 L 123 52 L 104 52 Z M 104 24 " clip-rule="nonzero"/></clipPath><clipPath id="0877f40be6"><path d="M 123.980469 0.0820312 L 207.539062 55.925781 L 163.363281 122.023438 L 79.804688 66.179688 Z M 123.980469 0.0820312 " clip-rule="nonzero"/></clipPath><clipPath id="d0f5bf5dec"><path d="M 123.980469 0.0820312 L 207.539062 55.925781 L 163.363281 122.023438 L 79.804688 66.179688 Z M 123.980469 0.0820312 " clip-rule="nonzero"/></clipPath><clipPath id="13c0662cb3"><path d="M 132 18 L 153 18 L 153 48 L 132 48 Z M 132 18 " clip-rule="nonzero"/></clipPath><clipPath id="a870916084"><path d="M 123.980469 0.0820312 L 207.539062 55.925781 L 163.363281 122.023438 L 79.804688 66.179688 Z M 123.980469 0.0820312 " clip-rule="nonzero"/></clipPath><clipPath id="ab2d14a05e"><path d="M 123.980469 0.0820312 L 207.539062 55.925781 L 163.363281 122.023438 L 79.804688 66.179688 Z M 123.980469 0.0820312 " clip-rule="nonzero"/></clipPath><clipPath id="7a3d01d274"><path d="M 156 37 L 182 37 L 182 61 L 156 61 Z M 156 37 " clip-rule="nonzero"/></clipPath><clipPath id="5bdf90a62d"><path d="M 123.980469 0.0820312 L 207.539062 55.925781 L 163.363281 122.023438 L 79.804688 66.179688 Z M 123.980469 0.0820312 " clip-rule="nonzero"/></clipPath><clipPath id="d27eaf05cd"><path d="M 123.980469 0.0820312 L 207.539062 55.925781 L 163.363281 122.023438 L 79.804688 66.179688 Z M 123.980469 0.0820312 " clip-rule="nonzero"/></clipPath><clipPath id="494efd36a1"><path d="M 162 69 L 190 69 L 190 89 L 162 89 Z M 162 69 " clip-rule="nonzero"/></clipPath><clipPath id="6e8541ee97"><path d="M 123.980469 0.0820312 L 207.539062 55.925781 L 163.363281 122.023438 L 79.804688 66.179688 Z M 123.980469 0.0820312 " clip-rule="nonzero"/></clipPath><clipPath id="9d2486ca26"><path d="M 123.980469 0.0820312 L 207.539062 55.925781 L 163.363281 122.023438 L 79.804688 66.179688 Z M 123.980469 0.0820312 " clip-rule="nonzero"/></clipPath></defs><g clip-path="url(#f5f8acac55)"><g clip-path="url(#9beb6b2703)"><g clip-path="url(#48e9a0adc8)"><g clip-path="url(#3f908f8cef)"><g clip-path="url(#1b85bfaa34)"><path fill="#ffffff" d="M 103.339844 231.214844 C 88 229.105469 69.265625 213.75 49.675781 235.183594 C 29.707031 257.035156 59.914062 284.730469 73.054688 301.136719 C 80.039062 309.863281 100.800781 351.746094 124.699219 345.121094 C 145.601562 339.324219 148.539062 320.742188 149.34375 295.351562 C 150.0625 272.667969 165.902344 254.464844 153.414062 238.191406 C 141.714844 222.953125 112.730469 232.5 103.339844 231.214844 " fill-opacity="1" fill-rule="nonzero"/></g></g></g></g></g><g clip-path="url(#fc10466d73)"><g clip-path="url(#58a9ab95b3)"><g clip-path="url(#f137ba810e)"><path fill="#ffffff" d="M 115.558594 175.410156 C 112.183594 192.03125 100.625 203.394531 89.730469 200.796875 C 78.84375 198.199219 72.75 182.625 76.121094 166.007812 C 79.496094 149.394531 91.0625 138.027344 101.945312 140.621094 C 112.835938 143.21875 118.925781 158.792969 115.558594 175.410156 " fill-opacity="1" fill-rule="nonzero"/></g></g></g><g clip-path="url(#0f35b35340)"><g clip-path="url(#d78d58b9d2)"><g clip-path="url(#767b9cb71f)"><path fill="#ffffff" d="M 180.484375 195.234375 C 169.136719 210.515625 152.167969 216.925781 142.589844 209.554688 C 133 202.175781 134.429688 183.804688 145.78125 168.523438 C 157.125 153.238281 174.09375 146.832031 183.679688 154.207031 C 193.261719 161.582031 191.832031 179.953125 180.484375 195.234375 " fill-opacity="1" fill-rule="nonzero"/></g></g></g><g clip-path="url(#46eef27c5a)"><g clip-path="url(#16066ff1d8)"><g clip-path="url(#d73984729e)"><path fill="#ffffff" d="M 216.546875 256.316406 C 199.011719 262.730469 181.289062 259.078125 176.976562 248.164062 C 172.660156 237.257812 183.375 223.207031 200.910156 216.792969 C 218.449219 210.378906 236.167969 214.027344 240.488281 224.941406 C 244.804688 235.851562 234.089844 249.902344 216.546875 256.316406 " fill-opacity="1" fill-rule="nonzero"/></g></g></g><g clip-path="url(#c8a6b5539b)"><g clip-path="url(#e13907957a)"><g clip-path="url(#a2bfad248d)"><path fill="#ffffff" d="M 200.078125 329.847656 C 182.046875 328.605469 167.769531 318.046875 168.183594 306.261719 C 168.601562 294.476562 183.550781 285.921875 201.582031 287.15625 C 219.613281 288.394531 233.894531 298.957031 233.480469 310.75 C 233.066406 322.539062 218.113281 331.085938 200.078125 329.847656 " fill-opacity="1" fill-rule="nonzero"/></g></g></g><g clip-path="url(#ec216cc765)"><g clip-path="url(#ef32bd4205)"><g clip-path="url(#e5f95476ab)"><g clip-path="url(#05b044d850)"><g clip-path="url(#c224bc78cb)"><path fill="#ffffff" d="M 311.558594 226.652344 C 304.441406 228.589844 293.363281 225.351562 288.773438 238.402344 C 284.097656 251.707031 302.503906 258.210938 311.324219 262.953125 C 316.011719 265.476562 332.929688 279.964844 342.167969 272.605469 C 350.25 266.164062 348.074219 257.46875 343.6875 246.1875 C 339.773438 236.109375 343.324219 225.175781 334.8125 220.371094 C 326.839844 215.871094 315.914062 225.464844 311.558594 226.652344 " fill-opacity="1" fill-rule="nonzero"/></g></g></g></g></g><g clip-path="url(#ccd9b1f9a2)"><g clip-path="url(#73135aba83)"><g clip-path="url(#6d198fe1f1)"><path fill="#ffffff" d="M 306.503906 199.910156 C 308.125 207.824219 305.179688 214.960938 299.917969 215.855469 C 294.660156 216.746094 289.085938 211.058594 287.464844 203.144531 C 285.84375 195.230469 288.792969 188.089844 294.050781 187.199219 C 299.308594 186.304688 304.882812 191.996094 306.503906 199.910156 " fill-opacity="1" fill-rule="nonzero"/></g></g></g><g clip-path="url(#c64aaada8f)"><g clip-path="url(#a425f32fc7)"><g clip-path="url(#50d66763d2)"><path fill="#ffffff" d="M 338.667969 196.488281 C 336.542969 205.304688 330.296875 211.28125 324.726562 209.835938 C 319.144531 208.390625 316.34375 200.070312 318.472656 191.253906 C 320.59375 182.4375 326.835938 176.460938 332.414062 177.90625 C 337.992188 179.355469 340.789062 187.675781 338.667969 196.488281 " fill-opacity="1" fill-rule="nonzero"/></g></g></g><g clip-path="url(#d190ae3d97)"><g clip-path="url(#2e14b64a31)"><g clip-path="url(#9626d9bdd4)"><path fill="#ffffff" d="M 365.871094 216.539062 C 359.378906 222.621094 350.929688 224.328125 347 220.347656 C 343.074219 216.371094 345.152344 208.214844 351.640625 202.132812 C 358.132812 196.046875 366.582031 194.34375 370.511719 198.320312 C 374.441406 202.296875 372.363281 210.457031 365.871094 216.539062 " fill-opacity="1" fill-rule="nonzero"/></g></g></g><g clip-path="url(#8e8f28a115)"><g clip-path="url(#fdadc9696b)"><g clip-path="url(#ab44d7d4fc)"><path fill="#ffffff" d="M 372.363281 251.847656 C 364.230469 254.664062 356 252.699219 353.984375 247.457031 C 351.96875 242.210938 356.925781 235.671875 365.0625 232.851562 C 373.195312 230.03125 381.425781 232 383.445312 237.246094 C 385.464844 242.488281 380.503906 249.027344 372.363281 251.847656 " fill-opacity="1" fill-rule="nonzero"/></g></g></g><g clip-path="url(#f17033b419)"><g clip-path="url(#1d64ae1db8)"><g clip-path="url(#7ce979b932)"><g clip-path="url(#642049fed0)"><g clip-path="url(#8b1dbc81de)"><path fill="#ffffff" d="M 125.410156 61.433594 C 118.871094 62.761719 109.0625 59.183594 104.148438 70.695312 C 99.140625 82.429688 115.375 89.390625 123.054688 94.191406 C 127.140625 96.746094 141.554688 110.824219 150.332031 104.726562 C 158.011719 99.386719 156.558594 91.410156 153.265625 80.964844 C 150.324219 71.636719 154.175781 61.976562 146.773438 57.136719 C 139.84375 52.601562 129.414062 60.617188 125.410156 61.433594 " fill-opacity="1" fill-rule="nonzero"/></g></g></g></g></g><g clip-path="url(#5820b2e3a6)"><g clip-path="url(#0877f40be6)"><g clip-path="url(#d0f5bf5dec)"><path fill="#ffffff" d="M 122.429688 36.992188 C 123.425781 44.234375 120.34375 50.503906 115.542969 51 C 110.742188 51.492188 106.046875 46.027344 105.050781 38.789062 C 104.054688 31.546875 107.136719 25.277344 111.9375 24.78125 C 116.734375 24.285156 121.433594 29.753906 122.429688 36.992188 " fill-opacity="1" fill-rule="nonzero"/></g></g></g><g clip-path="url(#13c0662cb3)"><g clip-path="url(#a870916084)"><g clip-path="url(#ab2d14a05e)"><path fill="#ffffff" d="M 151.667969 35.804688 C 149.226562 43.636719 143.238281 48.664062 138.292969 47.027344 C 133.339844 45.394531 131.304688 37.71875 133.742188 29.882812 C 136.179688 22.050781 142.167969 17.027344 147.121094 18.660156 C 152.066406 20.292969 154.105469 27.972656 151.667969 35.804688 " fill-opacity="1" fill-rule="nonzero"/></g></g></g><g clip-path="url(#7a3d01d274)"><g clip-path="url(#5bdf90a62d)"><g clip-path="url(#d27eaf05cd)"><path fill="#ffffff" d="M 175.039062 55.511719 C 168.820312 60.621094 161.089844 61.660156 157.78125 57.835938 C 154.472656 54.011719 156.828125 46.769531 163.046875 41.664062 C 169.265625 36.554688 176.992188 35.515625 180.308594 39.335938 C 183.617188 43.160156 181.261719 50.402344 175.039062 55.511719 " fill-opacity="1" fill-rule="nonzero"/></g></g></g><g clip-path="url(#494efd36a1)"><g clip-path="url(#6e8541ee97)"><g clip-path="url(#9d2486ca26)"><path fill="#ffffff" d="M 178.820312 87.769531 C 171.308594 89.832031 163.996094 87.574219 162.484375 82.71875 C 160.972656 77.867188 165.835938 72.257812 173.347656 70.191406 C 180.859375 68.125 188.171875 70.386719 189.683594 75.242188 C 191.195312 80.09375 186.332031 85.703125 178.820312 87.769531 " fill-opacity="1" fill-rule="nonzero"/></g></g></g></svg>