<svg xmlns="http://www.w3.org/2000/svg" xmlns:xlink="http://www.w3.org/1999/xlink" width="481" zoomAndPan="magnify" viewBox="0 0 360.75 352.49999" height="470" preserveAspectRatio="xMidYMid meet" version="1.0"><defs><filter x="0%" y="0%" width="100%" height="100%" id="07583747ed"><feColorMatrix values="0 0 0 0 1 0 0 0 0 1 0 0 0 0 1 0 0 0 1 0" color-interpolation-filters="sRGB"/></filter><clipPath id="cc41283ee2"><path d="M 218 42 L 322 42 L 322 151 L 218 151 Z M 218 42 " clip-rule="nonzero"/></clipPath><clipPath id="a10b7ab990"><path d="M 228.507812 265.390625 L 103.390625 98.972656 L 234.488281 0.410156 L 359.605469 166.828125 Z M 228.507812 265.390625 " clip-rule="nonzero"/></clipPath><clipPath id="c71568cb97"><path d="M 228.507812 265.390625 L 103.390625 98.972656 L 234.488281 0.410156 L 359.605469 166.828125 Z M 228.507812 265.390625 " clip-rule="nonzero"/></clipPath><clipPath id="ef965e27e1"><path d="M 258.296875 185.199219 L 185.003906 87.714844 L 258.808594 32.226562 L 332.101562 129.710938 Z M 258.296875 185.199219 " clip-rule="nonzero"/></clipPath><clipPath id="30e027f110"><path d="M 258.296875 185.199219 L 185.003906 87.714844 L 258.796875 32.234375 L 332.089844 129.71875 Z M 258.296875 185.199219 " clip-rule="nonzero"/></clipPath><clipPath id="3311f71dca"><path d="M 255 171 L 293 171 L 293 226 L 255 226 Z M 255 171 " clip-rule="nonzero"/></clipPath><clipPath id="fb74f89819"><path d="M 228.507812 265.390625 L 103.390625 98.972656 L 234.488281 0.410156 L 359.605469 166.828125 Z M 228.507812 265.390625 " clip-rule="nonzero"/></clipPath><clipPath id="efe9a537c8"><path d="M 228.507812 265.390625 L 103.390625 98.972656 L 234.488281 0.410156 L 359.605469 166.828125 Z M 228.507812 265.390625 " clip-rule="nonzero"/></clipPath><clipPath id="91653bca48"><path d="M 190 161 L 239 161 L 239 216 L 190 216 Z M 190 161 " clip-rule="nonzero"/></clipPath><clipPath id="119ff4506b"><path d="M 228.507812 265.390625 L 103.390625 98.972656 L 234.488281 0.410156 L 359.605469 166.828125 Z M 228.507812 265.390625 " clip-rule="nonzero"/></clipPath><clipPath id="3277d7886c"><path d="M 228.507812 265.390625 L 103.390625 98.972656 L 234.488281 0.410156 L 359.605469 166.828125 Z M 228.507812 265.390625 " clip-rule="nonzero"/></clipPath><clipPath id="d41a848c79"><path d="M 144 119 L 203 119 L 203 161 L 144 161 Z M 144 119 " clip-rule="nonzero"/></clipPath><clipPath id="9da5d3c084"><path d="M 228.507812 265.390625 L 103.390625 98.972656 L 234.488281 0.410156 L 359.605469 166.828125 Z M 228.507812 265.390625 " clip-rule="nonzero"/></clipPath><clipPath id="cdec7c117d"><path d="M 228.507812 265.390625 L 103.390625 98.972656 L 234.488281 0.410156 L 359.605469 166.828125 Z M 228.507812 265.390625 " clip-rule="nonzero"/></clipPath><clipPath id="3f53c77188"><path d="M 151 56 L 210 56 L 210 95 L 151 95 Z M 151 56 " clip-rule="nonzero"/></clipPath><clipPath id="d5f282847a"><path d="M 228.507812 265.390625 L 103.390625 98.972656 L 234.488281 0.410156 L 359.605469 166.828125 Z M 228.507812 265.390625 " clip-rule="nonzero"/></clipPath><clipPath id="6f54b57cb5"><path d="M 228.507812 265.390625 L 103.390625 98.972656 L 234.488281 0.410156 L 359.605469 166.828125 Z M 228.507812 265.390625 " clip-rule="nonzero"/></clipPath><mask id="9945dba88e"><g filter="url(#07583747ed)"><rect x="-36.075" width="432.9" fill="#000000" y="-35.249999" height="422.999987" fill-opacity="0.98"/></g></mask><clipPath id="eedea08096"><path d="M 54 18 L 104 18 L 104 70 L 54 70 Z M 54 18 " clip-rule="nonzero"/></clipPath><clipPath id="87c2a44d94"><path d="M 61.027344 125.546875 L -1.128906 48.671875 L 60.019531 -0.773438 L 122.179688 76.101562 Z M 61.027344 125.546875 " clip-rule="nonzero"/></clipPath><clipPath id="ff53cc4e93"><path d="M 61.027344 125.546875 L -1.128906 48.671875 L 60.019531 -0.773438 L 122.179688 76.101562 Z M 61.027344 125.546875 " clip-rule="nonzero"/></clipPath><clipPath id="98d8698f0d"><path d="M 73.859375 86.867188 L 37.324219 41.683594 L 71.535156 14.019531 L 108.070312 59.203125 Z M 73.859375 86.867188 " clip-rule="nonzero"/></clipPath><clipPath id="0713ea28bb"><path d="M 73.859375 86.867188 L 37.324219 41.683594 L 71.527344 14.023438 L 108.066406 59.210938 Z M 73.859375 86.867188 " clip-rule="nonzero"/></clipPath><clipPath id="593edce89f"><path d="M 73 79 L 91 79 L 91 106 L 73 106 Z M 73 79 " clip-rule="nonzero"/></clipPath><clipPath id="1cb62cdb84"><path d="M 61.027344 125.546875 L -1.128906 48.671875 L 60.019531 -0.773438 L 122.179688 76.101562 Z M 61.027344 125.546875 " clip-rule="nonzero"/></clipPath><clipPath id="30f377a33d"><path d="M 61.027344 125.546875 L -1.128906 48.671875 L 60.019531 -0.773438 L 122.179688 76.101562 Z M 61.027344 125.546875 " clip-rule="nonzero"/></clipPath><clipPath id="3138e6c67b"><path d="M 41 75 L 65 75 L 65 103 L 41 103 Z M 41 75 " clip-rule="nonzero"/></clipPath><clipPath id="1179f2bdd3"><path d="M 61.027344 125.546875 L -1.128906 48.671875 L 60.019531 -0.773438 L 122.179688 76.101562 Z M 61.027344 125.546875 " clip-rule="nonzero"/></clipPath><clipPath id="1446c06ca2"><path d="M 61.027344 125.546875 L -1.128906 48.671875 L 60.019531 -0.773438 L 122.179688 76.101562 Z M 61.027344 125.546875 " clip-rule="nonzero"/></clipPath><clipPath id="47cd9c091c"><path d="M 18 56 L 47 56 L 47 77 L 18 77 Z M 18 56 " clip-rule="nonzero"/></clipPath><clipPath id="9ec58d8e8b"><path d="M 61.027344 125.546875 L -1.128906 48.671875 L 60.019531 -0.773438 L 122.179688 76.101562 Z M 61.027344 125.546875 " clip-rule="nonzero"/></clipPath><clipPath id="f7faa0194a"><path d="M 61.027344 125.546875 L -1.128906 48.671875 L 60.019531 -0.773438 L 122.179688 76.101562 Z M 61.027344 125.546875 " clip-rule="nonzero"/></clipPath><clipPath id="ca1bbca311"><path d="M 21 26 L 49 26 L 49 46 L 21 46 Z M 21 26 " clip-rule="nonzero"/></clipPath><clipPath id="e2d1fdf4f3"><path d="M 61.027344 125.546875 L -1.128906 48.671875 L 60.019531 -0.773438 L 122.179688 76.101562 Z M 61.027344 125.546875 " clip-rule="nonzero"/></clipPath><clipPath id="487a78d77a"><path d="M 61.027344 125.546875 L -1.128906 48.671875 L 60.019531 -0.773438 L 122.179688 76.101562 Z M 61.027344 125.546875 " clip-rule="nonzero"/></clipPath><clipPath id="5bfb6d7db2"><rect x="0" width="122" y="0" height="124"/></clipPath><clipPath id="19283348bb"><path d="M 212 259 L 262 259 L 262 305 L 212 305 Z M 212 259 " clip-rule="nonzero"/></clipPath><clipPath id="fe0435f7f1"><path d="M 250.71875 351.589844 L 170.730469 310.617188 L 203.167969 247.292969 L 283.15625 288.265625 Z M 250.71875 351.589844 " clip-rule="nonzero"/></clipPath><clipPath id="f04abe4ef0"><path d="M 250.71875 351.589844 L 170.730469 310.617188 L 203.167969 247.292969 L 283.15625 288.265625 Z M 250.71875 351.589844 " clip-rule="nonzero"/></clipPath><clipPath id="800ce6c5e1"><path d="M 247.144531 314.898438 L 200.359375 290.933594 L 218.503906 255.511719 L 265.289062 279.476562 Z M 247.144531 314.898438 " clip-rule="nonzero"/></clipPath><clipPath id="9db8a5e9b2"><path d="M 247.144531 314.898438 L 200.359375 290.933594 L 218.5 255.515625 L 265.285156 279.484375 Z M 247.144531 314.898438 " clip-rule="nonzero"/></clipPath><clipPath id="4b144e082b"><path d="M 247 305 L 265 305 L 265 329 L 247 329 Z M 247 305 " clip-rule="nonzero"/></clipPath><clipPath id="9646d15b25"><path d="M 250.71875 351.589844 L 170.730469 310.617188 L 203.167969 247.292969 L 283.15625 288.265625 Z M 250.71875 351.589844 " clip-rule="nonzero"/></clipPath><clipPath id="3d42dac5f4"><path d="M 250.71875 351.589844 L 170.730469 310.617188 L 203.167969 247.292969 L 283.15625 288.265625 Z M 250.71875 351.589844 " clip-rule="nonzero"/></clipPath><clipPath id="183309a055"><path d="M 222 311 L 240 311 L 240 338 L 222 338 Z M 222 311 " clip-rule="nonzero"/></clipPath><clipPath id="deadbe4693"><path d="M 250.71875 351.589844 L 170.730469 310.617188 L 203.167969 247.292969 L 283.15625 288.265625 Z M 250.71875 351.589844 " clip-rule="nonzero"/></clipPath><clipPath id="5eaa186cb5"><path d="M 250.71875 351.589844 L 170.730469 310.617188 L 203.167969 247.292969 L 283.15625 288.265625 Z M 250.71875 351.589844 " clip-rule="nonzero"/></clipPath><clipPath id="2e8700c301"><path d="M 194 302 L 217 302 L 217 325 L 194 325 Z M 194 302 " clip-rule="nonzero"/></clipPath><clipPath id="026b577a6a"><path d="M 250.71875 351.589844 L 170.730469 310.617188 L 203.167969 247.292969 L 283.15625 288.265625 Z M 250.71875 351.589844 " clip-rule="nonzero"/></clipPath><clipPath id="b67b14f24a"><path d="M 250.71875 351.589844 L 170.730469 310.617188 L 203.167969 247.292969 L 283.15625 288.265625 Z M 250.71875 351.589844 " clip-rule="nonzero"/></clipPath><clipPath id="8065b7aacd"><path d="M 184 278 L 209 278 L 209 296 L 184 296 Z M 184 278 " clip-rule="nonzero"/></clipPath><clipPath id="02ede3f5ce"><path d="M 250.71875 351.589844 L 170.730469 310.617188 L 203.167969 247.292969 L 283.15625 288.265625 Z M 250.71875 351.589844 " clip-rule="nonzero"/></clipPath><clipPath id="0542d572b5"><path d="M 250.71875 351.589844 L 170.730469 310.617188 L 203.167969 247.292969 L 283.15625 288.265625 Z M 250.71875 351.589844 " clip-rule="nonzero"/></clipPath></defs><g clip-path="url(#cc41283ee2)"><g clip-path="url(#a10b7ab990)"><g clip-path="url(#c71568cb97)"><g clip-path="url(#ef965e27e1)"><g clip-path="url(#30e027f110)"><path fill="#ffffff" d="M 267.730469 144.480469 C 281.421875 146.363281 298.148438 160.070312 315.636719 140.9375 C 333.460938 121.429688 306.496094 96.707031 294.765625 82.058594 C 288.53125 74.269531 269.996094 36.878906 248.660156 42.792969 C 230 47.964844 227.378906 64.554688 226.660156 87.222656 C 226.019531 107.472656 211.878906 123.722656 223.027344 138.253906 C 233.472656 151.855469 259.347656 143.332031 267.730469 144.480469 " fill-opacity="1" fill-rule="nonzero"/></g></g></g></g></g><g clip-path="url(#3311f71dca)"><g clip-path="url(#fb74f89819)"><g clip-path="url(#efe9a537c8)"><path fill="#ffffff" d="M 256.824219 194.300781 C 259.835938 179.460938 270.15625 169.316406 279.878906 171.636719 C 289.597656 173.957031 295.039062 187.859375 292.027344 202.691406 C 289.015625 217.523438 278.691406 227.671875 268.972656 225.355469 C 259.253906 223.035156 253.816406 209.132812 256.824219 194.300781 " fill-opacity="1" fill-rule="nonzero"/></g></g></g><g clip-path="url(#91653bca48)"><g clip-path="url(#119ff4506b)"><g clip-path="url(#3277d7886c)"><path fill="#ffffff" d="M 198.859375 176.601562 C 208.992188 162.957031 224.140625 157.238281 232.691406 163.820312 C 241.25 170.40625 239.972656 186.804688 229.839844 200.445312 C 219.714844 214.089844 204.566406 219.8125 196.007812 213.226562 C 187.453125 206.640625 188.730469 190.242188 198.859375 176.601562 " fill-opacity="1" fill-rule="nonzero"/></g></g></g><g clip-path="url(#d41a848c79)"><g clip-path="url(#9da5d3c084)"><g clip-path="url(#cdec7c117d)"><path fill="#ffffff" d="M 166.667969 122.070312 C 182.320312 116.34375 198.140625 119.605469 201.992188 129.347656 C 205.847656 139.085938 196.28125 151.628906 180.628906 157.351562 C 164.96875 163.078125 149.152344 159.824219 145.292969 150.082031 C 141.441406 140.34375 151.003906 127.796875 166.667969 122.070312 " fill-opacity="1" fill-rule="nonzero"/></g></g></g><g clip-path="url(#3f53c77188)"><g clip-path="url(#d5f282847a)"><g clip-path="url(#6f54b57cb5)"><path fill="#ffffff" d="M 181.367188 56.429688 C 197.464844 57.535156 210.210938 66.960938 209.84375 77.484375 C 209.46875 88.007812 196.121094 95.640625 180.027344 94.539062 C 163.929688 93.433594 151.179688 84.003906 151.550781 73.476562 C 151.917969 62.953125 165.269531 55.320312 181.367188 56.429688 " fill-opacity="1" fill-rule="nonzero"/></g></g></g><g mask="url(#9945dba88e)"><g transform="matrix(1, 0, 0, 1, 2, 74)"><g clip-path="url(#5bfb6d7db2)"><g clip-path="url(#eedea08096)"><g clip-path="url(#87c2a44d94)"><g clip-path="url(#ff53cc4e93)"><g clip-path="url(#98d8698f0d)"><g clip-path="url(#0713ea28bb)"><path fill="#ffffff" d="M 77.667969 67.320312 C 84.21875 67.984375 92.414062 74.230469 100.421875 64.828125 C 108.578125 55.238281 95.324219 43.917969 89.492188 37.144531 C 86.394531 33.539062 76.9375 16.046875 66.878906 19.222656 C 58.082031 22 57.113281 29.941406 57.152344 40.746094 C 57.1875 50.398438 50.726562 58.375 56.28125 65.105469 C 61.480469 71.40625 73.660156 66.914062 77.667969 67.320312 " fill-opacity="1" fill-rule="nonzero"/></g></g></g></g></g><g clip-path="url(#593edce89f)"><g clip-path="url(#1cb62cdb84)"><g clip-path="url(#30f377a33d)"><path fill="#ffffff" d="M 73.3125 91.222656 C 74.496094 84.109375 79.242188 79.105469 83.910156 80.042969 C 88.578125 80.984375 91.402344 87.511719 90.214844 94.628906 C 89.03125 101.738281 84.285156 106.746094 79.621094 105.804688 C 74.953125 104.863281 72.128906 98.335938 73.3125 91.222656 " fill-opacity="1" fill-rule="nonzero"/></g></g></g><g clip-path="url(#3138e6c67b)"><g clip-path="url(#1179f2bdd3)"><g clip-path="url(#1446c06ca2)"><path fill="#ffffff" d="M 45.417969 83.769531 C 50.011719 77.105469 57.128906 74.125 61.308594 77.117188 C 65.496094 80.109375 65.164062 87.9375 60.570312 94.601562 C 55.976562 101.269531 48.859375 104.25 44.675781 101.257812 C 40.492188 98.265625 40.824219 90.4375 45.417969 83.769531 " fill-opacity="1" fill-rule="nonzero"/></g></g></g><g clip-path="url(#47cd9c091c)"><g clip-path="url(#9ec58d8e8b)"><g clip-path="url(#f7faa0194a)"><path fill="#ffffff" d="M 29.171875 58.347656 C 36.527344 55.359375 44.117188 56.644531 46.113281 61.21875 C 48.113281 65.792969 43.769531 71.921875 36.414062 74.914062 C 29.054688 77.902344 21.46875 76.617188 19.464844 72.042969 C 17.46875 67.472656 21.8125 61.335938 29.171875 58.347656 " fill-opacity="1" fill-rule="nonzero"/></g></g></g><g clip-path="url(#ca1bbca311)"><g clip-path="url(#e2d1fdf4f3)"><g clip-path="url(#487a78d77a)"><path fill="#ffffff" d="M 35.070312 26.84375 C 42.75 27.101562 48.980469 31.375 48.980469 36.390625 C 48.980469 41.410156 42.753906 45.269531 35.070312 45.015625 C 27.386719 44.757812 21.160156 40.484375 21.15625 35.464844 C 21.15625 30.449219 27.382812 26.589844 35.070312 26.84375 " fill-opacity="1" fill-rule="nonzero"/></g></g></g></g></g></g><g clip-path="url(#19283348bb)"><g clip-path="url(#fe0435f7f1)"><g clip-path="url(#f04abe4ef0)"><g clip-path="url(#800ce6c5e1)"><g clip-path="url(#9db8a5e9b2)"><path fill="#ffffff" d="M 243.125 297.335938 C 248.785156 295.484375 257.851562 297.644531 261.023438 286.929688 C 264.253906 276.011719 249.140625 271.511719 241.832031 268.046875 C 237.949219 266.203125 223.714844 255.203125 216.5625 261.519531 C 210.304688 267.042969 212.414062 273.96875 216.410156 282.886719 C 219.980469 290.855469 217.5625 299.820312 224.625 303.351562 C 231.234375 306.65625 239.65625 298.472656 243.125 297.335938 " fill-opacity="1" fill-rule="nonzero"/></g></g></g></g></g><g clip-path="url(#4b144e082b)"><g clip-path="url(#9646d15b25)"><g clip-path="url(#3d42dac5f4)"><path fill="#ffffff" d="M 248.289062 318.703125 C 246.65625 312.382812 248.746094 306.507812 252.949219 305.570312 C 257.15625 304.636719 261.882812 309 263.515625 315.316406 C 265.144531 321.632812 263.054688 327.511719 258.851562 328.449219 C 254.648438 329.382812 249.917969 325.019531 248.289062 318.703125 " fill-opacity="1" fill-rule="nonzero"/></g></g></g><g clip-path="url(#183309a055)"><g clip-path="url(#deadbe4693)"><g clip-path="url(#5eaa186cb5)"><path fill="#ffffff" d="M 222.484375 322.769531 C 223.839844 315.574219 228.632812 310.5 233.1875 311.4375 C 237.746094 312.378906 240.34375 318.972656 238.988281 326.171875 C 237.636719 333.371094 232.84375 338.441406 228.285156 337.503906 C 223.730469 336.5625 221.132812 329.96875 222.484375 322.769531 " fill-opacity="1" fill-rule="nonzero"/></g></g></g><g clip-path="url(#2e8700c301)"><g clip-path="url(#026b577a6a)"><g clip-path="url(#b67b14f24a)"><path fill="#ffffff" d="M 199.726562 307.703125 C 204.714844 302.535156 211.460938 300.816406 214.792969 303.867188 C 218.121094 306.914062 216.777344 313.578125 211.789062 318.746094 C 206.800781 323.917969 200.058594 325.640625 196.726562 322.589844 C 193.394531 319.542969 194.738281 312.875 199.726562 307.703125 " fill-opacity="1" fill-rule="nonzero"/></g></g></g><g clip-path="url(#8065b7aacd)"><g clip-path="url(#02ede3f5ce)"><g clip-path="url(#0542d572b5)"><path fill="#ffffff" d="M 193.050781 279.492188 C 199.5 276.886719 206.214844 278.136719 208.054688 282.285156 C 209.894531 286.433594 206.160156 291.910156 199.714844 294.515625 C 193.269531 297.121094 186.550781 295.871094 184.707031 291.722656 C 182.867188 287.574219 186.601562 282.097656 193.050781 279.492188 " fill-opacity="1" fill-rule="nonzero"/></g></g></g></svg>